<?xml version="1.0" encoding="utf-8"?>
<!-- Generator: Adobe Illustrator 24.0.0, SVG Export Plug-In . SVG Version: 6.00 Build 0)  -->
<svg version="1.1" id="Layer_1" xmlns="http://www.w3.org/2000/svg" xmlns:xlink="http://www.w3.org/1999/xlink" x="0px" y="0px"
	 viewBox="0 0 512 512" style="enable-background:new 0 0 512 512;" xml:space="preserve">
<style type="text/css">
	.st0{fill:#FFFFFF;}
</style>
<g>
	<g>
		<path class="st0" d="M224,64c-5.9,0-10.7,4.8-10.7,10.7v426.7c0,5.9,4.8,10.7,10.7,10.7s10.7-4.8,10.7-10.7V74.6
			C234.6,68.7,229.9,64,224,64z"/>
	</g>
</g>
<g>
	<g>
		<path class="st0" d="M266.6,64c-5.9,0-10.7,4.8-10.7,10.7v426.7c0,5.9,4.8,10.7,10.7,10.7s10.7-4.8,10.7-10.7V74.6
			C277.3,68.7,272.5,64,266.6,64z"/>
	</g>
</g>
<g>
	<g>
		<path class="st0" d="M224,213.3h-85.3c-17.6,0-32-14.4-32-32v-64c0-5.9-4.8-10.7-10.7-10.7s-10.7,4.8-10.7,10.7v64
			c0,29.4,23.9,53.3,53.3,53.3H224c5.9,0,10.7-4.8,10.7-10.7S229.9,213.3,224,213.3z"/>
	</g>
</g>
<g>
	<g>
		<path class="st0" d="M450.5,140.7c-11.9-10.2-27.8-14.5-43.4-12c-25.3,4.1-44.5,27.7-44.5,54.9v61.7c0,5.9-4.8,10.7-10.7,10.7
			h-21.3c-5.9,0-10.7-4.8-10.7-10.7v-167c0-41.1-31.7-76.1-70.7-78.2c-20.5-0.8-40.4,6.2-55.4,20.4c-15,14.2-23.3,33.5-23.3,54.2
			V160c0,5.9-4.8,10.7-10.7,10.7s-10.7-4.8-10.7-10.7v-40.4c0-27.2-19.1-50.8-44.5-54.9c-15.5-2.5-31.4,1.8-43.4,12
			c-11.9,10.2-18.8,25-18.8,40.6v85.3c0,41.2,33.5,74.7,74.7,74.7h53.3v224c0,5.9,4.8,10.7,10.7,10.7h128c5.9,0,10.7-4.8,10.7-10.7
			V362.6h74.7c41.2,0,74.7-33.5,74.7-74.7V181.3C469.3,165.6,462.5,150.8,450.5,140.7z M448,288c0,29.4-23.9,53.3-53.3,53.3h-85.3
			c-5.9,0-10.7,4.8-10.7,10.7v138.7H192v-224c0-5.9-4.8-10.7-10.7-10.7h-64C87.9,256,64,232,64,202.6v-85.3
			c0-9.4,4.1-18.3,11.3-24.4c7.3-6.2,16.6-8.8,26.2-7.2c15.1,2.5,26.5,17,26.5,33.8V160c0,17.6,14.4,32,32,32s32-14.4,32-32V74.6
			c0-14.8,5.9-28.5,16.6-38.7c10.7-10.2,24.8-15.4,39.6-14.5c27.8,1.5,50.5,27,50.5,56.9v167c0,17.6,14.4,32,32,32H352
			c17.6,0,32-14.4,32-32v-61.7c0-16.8,11.4-31.4,26.5-33.8c9.6-1.6,18.9,1,26.2,7.2c7.2,6.1,11.3,15,11.3,24.4L448,288L448,288z"/>
	</g>
</g>
<g>
	<g>
		<path class="st0" d="M416,170.6c-5.9,0-10.7,4.8-10.7,10.7v85.3c0,17.6-14.4,32-32,32H266.6c-5.9,0-10.7,4.8-10.7,10.7
			s4.8,10.7,10.7,10.7h106.7c29.4,0,53.3-23.9,53.3-53.3v-85.3C426.6,175.4,421.9,170.6,416,170.6z"/>
	</g>
</g>
</svg>
