<?xml version="1.0" encoding="utf-8"?>
<!-- Generator: Adobe Illustrator 24.0.0, SVG Export Plug-In . SVG Version: 6.00 Build 0)  -->
<svg version="1.1" id="Layer_1" xmlns="http://www.w3.org/2000/svg" xmlns:xlink="http://www.w3.org/1999/xlink" x="0px" y="0px"
	 viewBox="0 0 512 512" style="enable-background:new 0 0 512 512;" xml:space="preserve">
<style type="text/css">
	.st0{fill:#FFFFFF;}
</style>
<path class="st0" d="M496,240H293.3c-8.8,0-16-7.2-16-16c0-8.8,7.2-16,16-16H496c8.8,0,16,7.2,16,16C512,232.8,504.8,240,496,240z"
	/>
<path class="st0" d="M416,320c-4.1,0-8.2-1.6-11.3-4.7c-6.2-6.3-6.2-16.4,0-22.6l68.7-68.7l-68.7-68.7c-6.2-6.2-6.2-16.4,0-22.6
	c6.3-6.3,16.4-6.3,22.6,0l80,80c6.2,6.2,6.2,16.4,0,22.6l-80,80C424.2,318.4,420.1,320,416,320z"/>
<path class="st0" d="M170.7,512c-4.6,0-8.9-0.6-13.2-2L29.1,467.2C11.6,461.1,0,444.9,0,426.7v-384C0,19.2,19.1,0,42.7,0
	c4.6,0,8.9,0.6,13.2,2l128.4,42.8c17.5,6.1,29.1,22.4,29.1,40.6v384C213.3,492.9,194.2,512,170.7,512z M42.7,32
	C36.8,32,32,36.8,32,42.7v384c0,4.5,3.1,8.8,7.4,10.3l127.8,42.6c0.9,0.3,2.1,0.5,3.5,0.5c5.9,0,10.7-4.8,10.7-10.7v-384
	c0-4.5-3.1-8.8-7.4-10.3L46.1,32.5C45.2,32.2,44,32,42.7,32z"/>
<path class="st0" d="M325.3,170.7c-8.8,0-16-7.2-16-16v-96c0-14.7-12-26.7-26.7-26.7h-240c-8.8,0-16-7.2-16-16s7.2-16,16-16h240
	c32.4,0,58.7,26.3,58.7,58.7v96C341.3,163.5,334.2,170.7,325.3,170.7z"/>
<path class="st0" d="M282.7,448h-85.3c-8.8,0-16-7.2-16-16s7.2-16,16-16h85.3c14.7,0,26.7-12,26.7-26.7v-96c0-8.8,7.2-16,16-16
	s16,7.2,16,16v96C341.3,421.7,315,448,282.7,448z"/>
</svg>
