<?xml version="1.0" encoding="utf-8"?>
<!-- Generator: Adobe Illustrator 24.0.0, SVG Export Plug-In . SVG Version: 6.00 Build 0)  -->
<svg version="1.1" id="Layer_1" xmlns="http://www.w3.org/2000/svg" xmlns:xlink="http://www.w3.org/1999/xlink" x="0px" y="0px"
	 viewBox="0 0 512 512" style="enable-background:new 0 0 512 512;" xml:space="preserve">
<style type="text/css">
	.st0{fill:#FFFFFF;}
</style>
<path class="st0" d="M497.1,91C497.1,91,497,91,497.1,91L361,91V76c0-24.8-20.2-45-45-45H196c-24.8,0-45,20.2-45,45v15H15
	c-8.4,0-15,6.8-15,15v330c0,24.8,20.2,45,45,45h422c24.8,0,45-20.2,45-45V106.3c0,0,0,0,0-0.1C511.4,96.4,505.4,91.1,497.1,91z
	 M181,76c0-8.3,6.7-15,15-15h120c8.3,0,15,6.7,15,15v15H181V76z M476.2,121l-46.6,139.7c-2,6.1-7.8,10.3-14.2,10.3H331v-15
	c0-8.3-6.7-15-15-15H196c-8.3,0-15,6.7-15,15v15H96.6c-6.5,0-12.2-4.1-14.2-10.3L35.8,121H476.2z M301,271v30h-90v-30H301z M482,436
	c0,8.3-6.7,15-15,15H45c-8.3,0-15-6.7-15-15V198.4l23.9,71.8c6.1,18.4,23.3,30.8,42.7,30.8H181v15c0,8.3,6.7,15,15,15h120
	c8.3,0,15-6.7,15-15v-15h84.4c19.4,0,36.6-12.4,42.7-30.8l23.9-71.8V436z"/>
</svg>
