<?xml version="1.0" encoding="utf-8"?>
<!-- Generator: Adobe Illustrator 24.0.0, SVG Export Plug-In . SVG Version: 6.00 Build 0)  -->
<svg version="1.1" id="Layer_1" xmlns="http://www.w3.org/2000/svg" xmlns:xlink="http://www.w3.org/1999/xlink" x="0px" y="0px"
	 viewBox="0 0 63 54.1" style="enable-background:new 0 0 63 54.1;" xml:space="preserve">
<style type="text/css">
	.st0{fill:#FFFFFF;}
</style>
<title>Asset 1</title>
<g id="Layer_2_1_">
	<g id="Layer_1-2">
		<path class="st0" d="M13.2,5.2C7.1,3.5,1.3,5.5,0.2,9.6s3,8.7,9.1,10.3s11.9-0.3,13-4.4S19.3,6.8,13.2,5.2z"/>
		<path class="st0" d="M30.3,10.4c1-0.2,1.5-1.7,1.2-3.2S30,4.5,29,4.7S27.5,6.4,27.9,8S29.3,10.6,30.3,10.4z"/>
		<path class="st0" d="M63,10.7c0.3-6.6-6-9.4-6-9.4c-3.5-1.5-7.4-1.6-11-0.4c-3.1,1-5.9,3-7.7,5.7c-1.2,1.8-2.9,5.1-2.9,5.1
			c-0.5,1-1.6,1.7-2.7,1.7c-0.4,0-0.8,0-1.3,0.1c-5.1,0.7-9,5.1-9.1,10.2c0.1,5.2,3.9,9.5,9,10.2c-2,1.9-3.6,4.2-4.5,6.8
			c-2.2,6-1.2,11.9,2.3,13.1s8.1-2.5,10.3-8.5c2-5.3,1.4-10.5-1.2-12.5c2.1-1.1,3.9-2.8,4.9-5l0.5-0.8c0.5-1.1,2.1-1,2.1-1
			c0.9,0,1.4,0,1.4,0c1.2-0.1,2.5-0.3,3.7-0.5c1.9-0.5,3.7-1.3,5.5-2.3c2-1.1,3.6-2.8,4.7-4.8C62.3,16.2,63,13.4,63,10.7z"/>
	</g>
</g>
</svg>
